<svg xmlns="http://www.w3.org/2000/svg" viewBox="-26.0 -26.0 1495.5 241.3" role="img" aria-label="CI/CD for Life">
  <title>CI/CD for Life</title>
  <defs>
    <filter id="crt-bloom" x="-30%" y="-60%" width="160%" height="220%">
      <feGaussianBlur stdDeviation="9" result="b"/>
      <feMerge>
        <feMergeNode in="b"/><feMergeNode in="b"/><feMergeNode in="SourceGraphic"/>
      </feMerge>
    </filter>
  </defs>
  <rect x="0.0" y="0.0" width="645.1" height="189.3" rx="44"
        fill="#080A08" stroke="#00731E" stroke-width="3"/>
  <g fill="#00FF41" filter="url(#crt-bloom)"><path transform="translate(74.00 153.26) scale(0.16800 -0.16800)" d="M318 -12Q181 -12 115.5 82.0Q50 176 50 349Q50 521 115.5 615.5Q181 710 318 710Q370 710 409.5 696.0Q449 682 478.0 657.5Q507 633 526.0 598.5Q545 564 556 523L436 489Q429 513 420.0 534.0Q411 555 397.5 570.5Q384 586 364.0 594.5Q344 603 316 603Q248 603 218.5 551.0Q189 499 189 409V289Q189 199 218.5 147.0Q248 95 316 95Q344 95 364.0 103.5Q384 112 397.5 127.5Q411 143 420.0 164.0Q429 185 436 209L556 175Q545 134 526.0 99.5Q507 65 478.0 40.5Q449 16 409.5 2.0Q370 -12 318 -12Z"/><path transform="translate(174.80 153.26) scale(0.16800 -0.16800)" d="M78 0V98H235V600H78V698H522V600H365V98H522V0Z"/><path transform="translate(275.60 153.26) scale(0.16800 -0.16800)" d="M78 -138 407 760H522L193 -138Z"/><path transform="translate(376.40 153.26) scale(0.16800 -0.16800)" d="M318 -12Q181 -12 115.5 82.0Q50 176 50 349Q50 521 115.5 615.5Q181 710 318 710Q370 710 409.5 696.0Q449 682 478.0 657.5Q507 633 526.0 598.5Q545 564 556 523L436 489Q429 513 420.0 534.0Q411 555 397.5 570.5Q384 586 364.0 594.5Q344 603 316 603Q248 603 218.5 551.0Q189 499 189 409V289Q189 199 218.5 147.0Q248 95 316 95Q344 95 364.0 103.5Q384 112 397.5 127.5Q411 143 420.0 164.0Q429 185 436 209L556 175Q545 134 526.0 99.5Q507 65 478.0 40.5Q449 16 409.5 2.0Q370 -12 318 -12Z"/><path transform="translate(477.20 153.26) scale(0.16800 -0.16800)" d="M73 698H290Q426 698 492.5 608.0Q559 518 559 349Q559 179 492.5 89.5Q426 0 290 0H73ZM281 105Q353 105 387.5 152.0Q422 199 422 289V410Q422 499 387.5 546.0Q353 593 281 593H202V105Z"/></g>
  <g fill="#F0F2F5"><path transform="translate(719.11 153.26) scale(0.18800 -0.18800)" d="M383 719V602H337Q305 602 293.0 590.0Q281 578 281 549V528H383V393H281V0H82V393H8V528H82V550Q82 652 132.0 694.5Q182 737 275 737Q297 737 330.0 731.5Q363 726 383 719Z"/><path transform="translate(792.24 153.26) scale(0.18800 -0.18800)" d="M631 264Q631 129 551.5 58.5Q472 -12 333 -12Q194 -12 115.0 58.0Q36 128 36 264Q36 400 115.0 470.0Q194 540 333 540Q472 540 551.5 469.5Q631 399 631 264ZM235 292V235Q235 123 333 123Q432 123 432 235V292Q432 405 333 405Q235 405 235 292Z"/><path transform="translate(917.64 153.26) scale(0.18800 -0.18800)" d="M440 529V362H376Q314 362 286.5 330.0Q259 298 259 235V0H60V528H223L236 448Q254 494 293.0 517.5Q332 541 381 541Q404 541 422.0 535.5Q440 530 440 529Z"/><path transform="translate(1063.72 153.26) scale(0.18800 -0.18800)" d="M74 688H295V176H648V0H74Z"/><path transform="translate(1189.11 153.26) scale(0.18800 -0.18800)" d="M67 590V725H266V590ZM67 0V528H266V0Z"/><path transform="translate(1251.72 153.26) scale(0.18800 -0.18800)" d="M383 719V602H337Q305 602 293.0 590.0Q281 578 281 549V528H383V393H281V0H82V393H8V528H82V550Q82 652 132.0 694.5Q182 737 275 737Q297 737 330.0 731.5Q363 726 383 719Z"/><path transform="translate(1324.85 153.26) scale(0.18800 -0.18800)" d="M631 264V230H235Q235 173 260.5 144.0Q286 115 341 115Q391 115 414.5 136.0Q438 157 438 192H631Q631 96 558.0 42.0Q485 -12 345 -12Q198 -12 117.0 56.5Q36 125 36 264Q36 400 115.0 470.0Q194 540 333 540Q478 540 554.5 472.0Q631 404 631 264ZM236 324H430Q430 365 406.5 389.0Q383 413 341 413Q247 413 236 324Z"/></g>
</svg>
